inDegrees=yes
name=ik_S55_A04_T02
DataType=double
version=3
OpenSimVersion=4.3-2021-08-27-4bc7ad9
endheader
time	pelvis_tilt	pelvis_list	pelvis_rotation	pelvis_tx	pelvis_ty	pelvis_tz	hip_flexion_r	hip_adduction_r	hip_rotation_r	knee_angle_r	knee_angle_r_beta	ankle_angle_r	subtalar_angle_r	mtp_angle_r	hip_flexion_l	hip_adduction_l	hip_rotation_l	knee_angle_l	knee_angle_l_beta	ankle_angle_l	subtalar_angle_l	mtp_angle_l	lumbar_extension	lumbar_bending	lumbar_rotation	arm_flex_r	arm_add_r	arm_rot_r	elbow_flex_r	pro_sup_r	wrist_flex_r	wrist_dev_r	arm_flex_l	arm_add_l	arm_rot_l	elbow_flex_l	pro_sup_l	wrist_flex_l	wrist_dev_l
0	0	0	0	0	0.9399999999999999	0	0	0	0	0	0	0	0	0	0	0	0	0	0	0	0	0	0	0	0	0	0	0	0	89.99999999963507	0	0	0	0	0	0	89.99999999869995	0	0
0.02	22.71440852931647	9.912096899957223	16.36358412631154	0	0.9399999999999999	0	56.09646595308855	-2.068946543425889	-8.972672608188869	83.30440286848511	1.453936111462874	0	0	0	58.80334232091722	-22.75145248897774	4.209969566403389	93.26959745947046	1.627861567677498	0	0	0	0	0	0	3.450155048621166	-3.450155048621166	0.632379664466468	18.53549686669676	89.36762037251262	0	0	3.450155048621166	-3.450155048621166	0.632379664466468	18.53549686669676	89.36762037169602	0	0
0.04	22.73301761513592	9.913250365319001	16.35387120219995	0	0.9399999999999999	0	56.07205752664834	-2.05112728091665	-8.969861269816121	83.2762647896075	1.453445009341274	0	0	0	58.79250020494455	-22.76393910560409	4.209632505677889	93.28478277954531	1.628126601510773	0	0	0	0	0	0	3.714163673340061	-3.714163673340061	0.6807346490992597	19.29468831093925	89.31926539071888	0	0	3.714163673340061	-3.714163673340061	0.6807346490992597	19.29468831093925	89.31926538991129	0	0
0.06	22.72492175098353	9.954219101675857	16.39072907489465	0	0.9399999999999999	0	56.03217980335883	-2.118415283471613	-8.948870410271779	83.12985701846567	1.450889711684342	0	0	0	58.72563234747974	-22.69245655280028	4.155621910102259	93.07639065196724	1.6244894727493	0	0	0	0	0	0	3.869053960428332	-3.869053960428332	0.7094707389417189	19.89034922494978	89.29052930257014	0	0	3.869053960428332	-3.869053960428332	0.7094707389417189	19.89034922494978	89.29052930176829	0	0
0.08	22.72612339589653	9.91478629929186	16.36321043275245	0	0.9399999999999999	0	56.06326064919785	-2.057342845958511	-8.97262005089363	83.25991904363761	1.453159722255405	0	0	0	58.79896378748951	-22.74202889817924	4.223341970382037	93.29212079284258	1.628254674003366	0	0	0	0	0	0	3.994752373346732	-3.994752373346732	0.732659590818077	20.34681807970449	89.26734045205882	0	0	3.994752373346732	-3.994752373346732	0.732659590818077	20.34681807970449	89.26734045126085	0	0
0.1	22.71232480742202	9.909528911258313	16.36327382914415	0	0.9399999999999999	0	56.07620301806855	-2.055162326787396	-8.964827949746741	83.24224763741165	1.452851298033304	0	0	0	58.80099669691691	-22.75100778028453	4.217430515443028	93.27981485652445	1.628039894897074	0	0	0	0	0	0	4.362808123709506	-4.362808123709506	0.8002393693271674	21.76674089716307	89.19976067752397	0	0	4.362808123709506	-4.362808123709506	0.8002393693271674	21.76674089716307	89.19976067674106	0	0
0.12	22.70702537269914	9.925099703213139	16.36096737265516	0	0.9399999999999999	0	56.06559535982618	-2.062779798547128	-8.961662380008962	83.12311901703265	1.450772111374332	0	0	0	58.75225894972777	-22.75603335422753	4.196330567612028	93.10323528848318	1.624958000043004	0	0	0	0	0	0	4.540907290048333	-4.540907290048333	0.8329502456887339	22.38343237263172	89.16704980308521	0	0	4.540907290048333	-4.540907290048333	0.8329502456887339	22.38343237263172	89.1670498023086	0	0
0.14	22.69917195603899	9.913080341306911	16.36306107891912	0	0.9399999999999999	0	56.09697987619241	-2.054922250821179	-8.961384072127657	83.26046364787999	1.453169227392554	0	0	0	58.81854972625734	-22.75185618623977	4.25817765750925	93.28286077741778	1.628093056245418	0	0	0	0	0	0	4.663172789758855	-4.663172789758855	0.8552978345309135	22.82166679085515	89.14470221555541	0	0	4.663172789758855	-4.663172789758855	0.8552978345309135	22.82166679085515	89.14470221478332	0	0
0.16	22.70102920420913	9.914419837365994	16.35880068410732	0	0.9399999999999999	0	56.08785365498666	-2.052249252068586	-8.947287954233575	83.2512328178564	1.453008119015951	0	0	0	58.82013078225177	-22.76777203903202	4.267053400900473	93.26812464663246	1.627835862244209	0	0	0	0	0	0	4.872212552664466	-4.872212552664466	0.8929174131458161	23.41862979456094	89.10708263914005	0	0	4.872212552664466	-4.872212552664466	0.8929174131458161	23.41862979456094	89.10708263837499	0	0
0.18	22.6928753468574	9.897768392353957	16.34313940093534	0	0.9399999999999999	0	56.1104122885787	-2.030806592890068	-8.942067075382035	83.25611553298531	1.453093338471387	0	0	0	58.8159357006608	-22.80534479041098	4.270182347656269	93.26725144180924	1.627820621945	0	0	0	0	0	0	5.093767643590492	-5.093767643590492	0.9329625952613045	24.13267053349364	89.06703745936913	0	0	5.093767643590492	-5.093767643590492	0.9329625952613045	24.13267053349364	89.06703745861186	0	0
0.2	22.68593107858807	9.914135389206358	16.34928610193132	0	0.9399999999999999	0	56.11017158679883	-2.043773319943593	-8.931947268554831	83.28003574223891	1.453510824880629	0	0	0	58.83430346918201	-22.76429818317211	4.274862766400776	93.28480852874254	1.628127050919045	0	0	0	0	0	0	5.280185824701929	-5.280185824701929	0.9664814037281709	24.69528136626334	89.03351865286187	0	0	5.280185824701929	-5.280185824701929	0.9664814037281709	24.69528136626334	89.03351865211093	0	0
0.22	22.68477505576293	9.889962961317085	16.33863848113814	0	0.9399999999999999	0	56.12705736641767	-2.023391996416736	-8.949968053598688	83.27868734291656	1.453487290872822	0	0	0	58.82643787637403	-22.77383726713666	4.25654860408693	93.28619707291894	1.628151285586732	0	0	0	0	0	0	5.358814928478223	-5.358814928478223	0.9805551554058994	24.93727751928801	89.01944490200613	0	0	5.358814928478223	-5.358814928478223	0.9805551554058994	24.93727751928801	89.01944490125787	0	0
0.24	22.68954076737248	9.897609192073016	16.32971872232254	0	0.9399999999999999	0	56.08817485186923	-2.030986176127182	-8.936737086924815	83.19179794365211	1.451970784770577	0	0	0	58.79519240647138	-22.78009957919492	4.227838937704025	93.17666091302011	1.626239518946507	0	0	0	0	0	0	5.465118307569186	-5.465118307569186	0.9995419754681052	25.26328766484083	89.00045808305231	0	0	5.465118307569186	-5.465118307569186	0.9995419754681052	25.26328766484083	89.00045808230763	0	0
0.26	22.68533409418118	9.89842696702906	16.32932478930446	0	0.9399999999999999	0	56.1130426039526	-2.044484863280284	-8.92647609951886	83.27189848460137	1.45336880294277	0	0	0	58.83680357314019	-22.78025434623158	4.252604886668451	93.28727444165904	1.628170089218505	0	0	0	0	0	0	5.607644765724555	-5.607644765724555	1.025215168405373	25.74026925010853	88.9747848916173	0	0	5.607644765724555	-5.607644765724555	1.025215168405373	25.74026925010853	88.97478489087739	0	0
0.28	22.70031103613627	9.896705872275854	16.31005969238896	0	0.9399999999999999	0	56.08007971229303	-2.020120046809638	-8.942078010365686	83.12638317969527	1.450829081760115	0	0	0	58.75903112206181	-22.80626760373455	4.226042148992765	93.0997520097436	1.624897205360234	0	0	0	0	0	0	5.826203179821799	-5.826203179821798	1.064370624960653	26.48220494199855	88.93562943735111	0	0	5.826203179821799	-5.826203179821798	1.064370624960653	26.48220494199855	88.93562943661939	0	0
